<?xml version="1.0" encoding="UTF-8"?>
<svg id="Layer_1" data-name="Layer 1" xmlns="http://www.w3.org/2000/svg" viewBox="0 0 97.53 45.66">
  <defs>
    <style>
      .cls-1 {
        fill: #fff;
      }

      .cls-2 {
        fill: #2e3192;
      }

      .cls-2, .cls-3, .cls-4 {
        fill-rule: evenodd;
      }

      .cls-3 {
        fill: #00a4d6;
      }

      .cls-4 {
        fill: #39bb9d;
      }
    </style>
  </defs>
  <polygon class="cls-2" points="9.9 0 41.17 9.9 31.27 41.17 0 31.27 9.9 0 9.9 0"/>
  <polygon class="cls-3" points="31.11 12.94 63.83 10.77 66 43.49 33.28 45.66 31.11 12.94 31.11 12.94"/>
  <polygon class="cls-4" points="64.9 7.32 97.53 10.63 94.23 43.26 61.6 39.96 64.9 7.32 64.9 7.32"/>
  <path class="cls-1" d="M8.84,17.9l-4.19,11.41h6.7c1.27,0,2.23-.04,2.89-.11.66-.08,1.29-.16,1.79-.36,1.04-.4,2.57-1.93,2.93-2.92l1.47-3.99c.29-.8.06-2.56-.66-3.18-.36-.3-.97-.51-1.83-.65-.85-.13-2.56-.2-5.12-.2h-3.98ZM12.87,20.14c.58,0,1.52.04,1.71.1.56.2.85,1.02.72,1.37l-1.59,4.21c-.28.75-1,1.11-1.24,1.28-.24.17-1.31.25-2.07.25l2.47-7.22h0Z"/>
  <path class="cls-1" d="M63.15,21.36l.17-.45c.33-.91-.16-1.55-.34-1.92-.18-.38-.7-.7-1.59-.95-.88-.25-2.01-.37-3.39-.37-1.26,0-2.82.21-3.8.44-.98.23-1.68.69-2.23,1.1-.54.4-1.16,1.08-1.48,1.95-.22.61-.27,1.11-.13,1.49.14.39.27.91.62,1.13.35.22.92.58,2.09.97,1.1.36,2.74.37,3.21.92.21.24.37.65.13,1.32-.22.61-1.19.92-1.89.92-.35,0-1-.3-1.1-.41-.19-.24-.16-1.02-.07-1.33h-4.94c-.09.67-.31,1.4-.12,2.03.14.46.78.94,1.67,1.24.9.3,2.05.45,3.48.45,1.3,0,3.61-.13,4.68-.39,1.06-.26,1.94-.91,2.42-1.29.48-.39.83-.74,1.13-1.55.41-1.12.32-2.11-.18-2.59-1.23-1.18-2.05-1.15-4.74-1.85-.75-.2-1-.42-1.11-.61-.11-.19-.15-.61-.02-1,.08-.24.61-.74,1.25-.76.66-.01,1.19-.03,1.32.04.12.07.39.4.31.81l-.13.66h4.75Z"/>
  <path class="cls-1" d="M75.42,17.9h-6.28l-8.5,11.41h5.18l1.09-1.77h4.04l-.12,1.77h5.03l-.45-11.41h0ZM71.13,25.26l-2.81-.02,3.19-5.05-.38,5.07h0Z"/>
  <polygon class="cls-1" points="94.52 17.9 89.65 17.9 87.19 24.89 86.38 17.9 80.95 17.9 76.91 29.31 81.58 29.31 83.85 23.02 84.81 29.31 90.47 29.31 94.52 17.9 94.52 17.9"/>
  <path class="cls-1" d="M44.53,21.12l-2.17,5.54c-.1.25-.2.56-.43.76-.16.15-.31.2-.67.2h-1.21c-.74,0-.51-.85-.29-1.46l1.96-5.33c.21-.58.42-.66.6-.77.19-.12.43-.18.71-.18,1.3,0,1.99-.13,1.48,1.24h0ZM48.46,24.58l.72-1.95c.33-.91.47-2.98-.28-3.77-.76-.8-2.71-1.2-4.89-1.2-2.31,0-4.24.44-5.55,1.23-.65.39-1.12.83-1.39,1.31-.27.47-.89,1.28-1.32,2.43l-.72,1.95c-.43,1.18-.4,1.99-.47,2.47-.07.47.09.9.47,1.3.77.8,2.42,1.2,4.61,1.2,2.31,0,4.8-.45,6.1-1.23.66-.4,1.12-.83,1.39-1.3.27-.48.91-1.29,1.33-2.44h0Z"/>
  <path class="cls-1" d="M29.93,21.12l-2.17,5.54c-.1.25-.2.56-.43.76-.16.15-.31.2-.67.2h-1.21c-.74,0-.51-.85-.29-1.46l1.96-5.33c.21-.58.42-.66.6-.77.19-.12.43-.18.71-.18,1.3,0,1.99-.13,1.48,1.24h0ZM33.87,24.58l.72-1.95c.33-.91.47-2.98-.28-3.77-.76-.8-2.71-1.2-4.89-1.2-2.31,0-4.24.44-5.55,1.23-.65.39-1.12.83-1.39,1.31-.27.47-.89,1.28-1.32,2.43l-.72,1.95c-.43,1.18-.4,1.99-.47,2.47-.07.47.09.9.47,1.3.77.8,2.42,1.2,4.61,1.2,2.31,0,4.8-.45,6.1-1.23.66-.4,1.12-.83,1.39-1.3.27-.48.91-1.29,1.33-2.44h0Z"/>
</svg>