<svg width="200" height="98" viewBox="0 0 200 98" fill="none" xmlns="http://www.w3.org/2000/svg">
<g clip-path="url(#clip0_222_183)">
<path d="M164.569 69.8039H168.791C168.958 69.8039 169.091 69.6682 169.091 69.5038V68.2122C169.091 68.0452 168.956 67.9121 168.791 67.9121H163.591C162.37 67.9121 161.375 68.9037 161.375 70.1274V74.8764C161.375 75.0513 161.516 75.1922 161.691 75.1922H168.656C168.898 75.1922 169.094 74.9965 169.094 74.7538V73.7362C169.094 73.4935 168.898 73.2978 168.656 73.2978H163.601V70.8294C163.601 70.2814 164.029 69.8352 164.569 69.8039Z" fill="#1A2441"/>
<path d="M185.087 69.9086L185.081 69.752C185.019 68.6352 184.074 67.748 182.913 67.748H177.626C177.394 67.748 177.209 67.9359 177.209 68.1655V69.2015C177.209 69.4311 177.392 69.6163 177.621 69.6189C177.647 69.6268 177.681 69.6346 177.718 69.6346H181.971C182.305 69.6346 182.623 69.8068 182.574 70.2374C182.532 70.6079 182.101 70.6992 181.89 70.7201C181.06 70.7697 180.228 70.7697 179.445 70.7697H177.313C177.264 70.7697 177.227 70.7749 177.196 70.7853C176.972 70.8192 176.799 71.0123 176.799 71.2472V72.1187C176.799 72.377 177.011 72.5858 177.266 72.5858H181.097C180.512 73.0033 179.766 73.3738 178.835 73.6608L177.243 74.0209C177.204 74.0287 177.167 74.047 177.131 74.0626C177.097 74.0757 177.071 74.094 177.05 74.1174C176.919 74.2244 176.851 74.3993 176.893 74.5767L177.128 75.61C177.162 75.7561 177.264 75.8735 177.392 75.9309C177.428 75.957 177.473 75.9675 177.527 75.9701C177.577 75.9753 177.629 75.9753 177.681 75.9649L177.715 75.9518C182.235 75.2786 185 72.437 185.084 69.8799" fill="#1A2441"/>
<path d="M140.991 70.9158V70.5427C140.991 69.8982 140.469 69.3789 139.828 69.3789H137.383V68.57C137.383 67.9255 136.861 67.4062 136.219 67.4062H135.595C135.353 67.4062 135.157 67.602 135.157 67.8446V69.3815H131.893C131.65 69.3815 131.454 69.5772 131.454 69.8199V70.921C131.454 71.1637 131.65 71.3594 131.893 71.3594H140.558C140.801 71.3594 140.997 71.1637 140.997 70.921L140.991 70.9158Z" fill="#1A2441"/>
<path d="M132.524 75.999C132.524 78.3056 134.009 79.7199 136.292 79.7199C138.575 79.7199 140.094 78.3056 140.094 75.999C140.094 73.6923 138.593 72.2441 136.292 72.2441C133.99 72.2441 132.524 73.6767 132.524 75.999ZM138.053 75.999C138.053 77.0819 137.385 77.8855 136.308 77.8855C135.23 77.8855 134.546 77.0819 134.546 75.999C134.546 74.9161 135.233 74.0785 136.308 74.0785C137.383 74.0785 138.053 74.8822 138.053 75.999Z" fill="#1A2441"/>
<path d="M189.669 67.0482H188.1C187.92 67.0482 187.772 67.1943 187.772 67.377V71.1083H185.504C185.272 71.1083 185.084 71.2988 185.084 71.5284V72.5774C185.084 72.8096 185.274 72.9975 185.504 72.9975H187.772V75.4476C187.772 75.6277 187.918 75.7764 188.1 75.7764H188.834C189.478 75.7764 189.997 75.2546 189.997 74.6127V67.3717C189.997 67.1917 189.851 67.043 189.669 67.043V67.0482Z" fill="#1A2441"/>
<path d="M142.265 67.3407C142.265 67.1032 142.458 66.9102 142.695 66.9102H144.06C144.297 66.9102 144.491 67.1032 144.491 67.3407V82.1826C144.491 82.2322 144.475 82.2818 144.451 82.3235C144.347 82.5349 143.914 82.7541 143.371 82.8506C142.899 82.9315 142.479 82.9002 142.262 82.7828V67.3407H142.265Z" fill="#1A2441"/>
<path d="M174.409 81.739C174.388 81.6973 174.357 81.6581 174.315 81.6294L173.418 81.0423L172.236 80.2334C171.286 79.6098 170.25 79.0514 169.112 78.5609C169.159 78.4304 169.345 77.4702 169.389 76.6665C169.399 76.5621 169.324 76.4682 169.219 76.4577L167.385 76.2646C167.281 76.2542 167.187 76.3299 167.176 76.4342L167.048 77.6606C166.876 78.5791 166.091 79.4454 164.943 80.1604C164.556 80.3926 163.745 80.7501 163.745 80.7501L162.393 81.3555C162.2 81.4416 162.114 81.666 162.2 81.8617L162.748 83.0985C162.834 83.2916 163.059 83.3777 163.254 83.2916L164.629 82.6784C165.905 82.1617 167.137 81.332 168.022 80.3352C169.037 80.7657 170.336 81.5746 170.983 81.9921L172.204 82.8219L172.254 82.8584L172.306 82.895L172.823 83.2498C172.823 83.2498 172.849 83.2655 172.862 83.2707L173.564 83.7456C173.783 83.6308 174.047 83.3673 174.242 82.9315C174.467 82.4279 174.529 81.9478 174.412 81.7416L174.409 81.739Z" fill="#1A2441"/>
<path d="M188.721 76.821C188.677 76.821 188.635 76.821 188.594 76.8262C188.56 76.8262 188.528 76.821 188.494 76.821H181.133C180.34 76.821 179.777 77.4002 179.777 78.2091V80.7559C179.777 82.2771 180.703 83.1851 182.224 83.1851H187.438C187.92 83.1851 188.398 83.193 188.732 83.1382C189.277 83.0495 189.705 82.8251 189.812 82.6111C189.836 82.5693 189.851 82.5224 189.851 82.4702V77.9456C189.851 77.322 189.345 76.8184 188.724 76.8184L188.721 76.821ZM187.153 81.2047H182.475C182.112 81.2047 181.929 81.0377 181.929 80.6906V79.0363C181.929 78.9032 182.028 78.8041 182.162 78.8041H187.487C187.62 78.8041 187.701 78.9032 187.701 79.0363V80.6906C187.701 81.0377 187.521 81.2047 187.156 81.2047H187.153Z" fill="#1A2441"/>
<path d="M158.834 66.9121H157.469C157.232 66.9121 157.039 67.1052 157.039 67.3427V72.4622H154.795C154.779 72.4622 154.766 72.4622 154.753 72.4674C154.443 69.7041 152.877 68.2533 150.709 68.2533C148.298 68.2533 146.625 70.0877 146.625 73.545C146.625 77.0024 148.298 78.8551 150.709 78.8551C152.887 78.8551 154.477 77.3547 154.758 74.4948C154.771 74.4948 154.784 74.5001 154.797 74.5001H157.041V82.7847C157.258 82.9021 157.678 82.9361 158.15 82.8526C158.693 82.7586 159.124 82.5394 159.231 82.3255C159.254 82.2837 159.27 82.2368 159.27 82.1846V67.3427C159.27 67.1052 159.077 66.9121 158.839 66.9121H158.834ZM150.706 76.8641C149.493 76.8641 148.689 75.763 148.689 73.545C148.689 71.3271 149.493 70.226 150.706 70.226C151.919 70.226 152.723 71.3428 152.723 73.545C152.723 75.7473 151.919 76.8641 150.706 76.8641Z" fill="#1A2441"/>
<path d="M175.153 70.5495H173.141V67.9115V67.2722C173.141 67.0739 172.979 66.9121 172.781 66.9121H171.275C171.077 66.9121 170.915 67.0739 170.915 67.2722V77.3208C171.129 77.4382 171.555 77.4721 172.027 77.3886C172.57 77.2947 173 77.0755 173.107 76.8615C173.131 76.8198 173.146 76.7728 173.146 76.7206V72.5874H175.158C175.401 72.5874 175.596 72.3917 175.596 72.1491V70.9853C175.596 70.7426 175.401 70.5469 175.158 70.5469L175.153 70.5495Z" fill="#1A2441"/>
<path d="M189.995 60.7021V48.3417C189.995 44.0885 188.912 40.7094 183.996 40.7094C181.504 40.7094 179.876 41.3278 178.034 42.3455C178 42.3037 177.971 42.2724 177.963 42.2672C177.566 41.8001 177.055 41.4348 176.416 41.166C176.364 41.1425 176.301 41.1295 176.246 41.1086C175.946 40.9938 175.615 40.9025 175.252 40.832C175.223 40.8268 175.195 40.8242 175.168 40.819C174.902 40.772 174.641 40.7198 174.341 40.6937C174.052 40.6703 173.467 40.6833 173.467 40.6833C173.358 40.6833 173.261 40.6911 173.154 40.6937C172.87 40.6885 172.588 40.6859 172.277 40.6859C171.411 40.6859 170.146 40.759 168.81 40.9416C168.81 40.9416 168.804 40.9468 168.802 40.9495C167.492 41.1138 166.19 41.3539 165.016 41.6592C164.186 41.8784 164.04 42.095 164.04 42.6403V60.7074C164.04 61.1066 164.366 61.4719 164.762 61.4719H168.102C168.499 61.4719 168.825 61.1092 168.825 60.7074V45.7298C170.307 44.9313 171.39 44.8217 172.149 44.8217C174.172 44.8217 174.641 45.5497 174.641 48.3469V60.7074C174.641 61.1066 174.968 61.4719 175.364 61.4719H178.688C179.085 61.4719 179.411 61.1092 179.411 60.7074V48.3469C179.411 47.4389 179.375 46.5282 179.268 45.7298C180.57 45.0383 181.942 44.8217 182.629 44.8217C184.651 44.8217 185.23 45.5497 185.23 48.3469V60.7074C185.23 61.1066 185.556 61.4719 185.953 61.4719H189.277C189.674 61.4719 190 61.1092 190 60.7074" fill="#1A2441"/>
<path d="M151.637 61.6366C145.941 61.6366 143.102 57.6652 143.102 52.4908V49.5606C143.102 44.3862 145.941 40.6836 151.637 40.6836C157.334 40.6836 160.308 44.5193 160.308 49.6962V52.6265C160.308 57.8009 157.334 61.6392 151.637 61.6392V61.6366ZM155.52 49.6936C155.52 46.7268 154.179 44.809 151.637 44.809C149.096 44.809 147.893 46.5911 147.893 49.5606V52.4908C147.893 55.4577 149.099 57.5112 151.637 57.5112C154.176 57.5112 155.52 55.5934 155.52 52.6265V49.6962V49.6936Z" fill="#1A2441"/>
<path d="M139.183 61.2757C138.356 61.4922 136.741 61.7427 134.549 61.7401C129.881 61.7349 126.361 58.8333 126.361 52.9362V49.5702C126.361 43.6704 129.881 40.7793 134.552 40.7871C136.743 40.7897 138.359 41.0455 139.186 41.2646C139.796 41.4108 139.94 41.6273 139.94 42.2066V44.5576C139.94 44.9203 139.653 45.1004 139.293 45.1004H139.186C137.612 45.0169 136.858 44.9308 134.525 44.9255C132.837 44.9255 131.105 45.8127 131.105 49.5754V52.9414C131.105 56.7041 132.866 57.6852 134.552 57.6878C136.887 57.6878 137.748 57.62 139.186 57.4399H139.293C139.653 57.4399 139.94 57.6226 139.94 57.9827V60.3363C139.94 60.9156 139.796 61.1321 139.186 61.2757H139.183Z" fill="#1A2441"/>
<path d="M120.378 61.6364C122.061 61.6364 123.425 60.2717 123.425 58.5887C123.425 56.9057 122.061 55.541 120.378 55.541C118.695 55.541 117.33 56.9057 117.33 58.5887C117.33 60.2717 118.695 61.6364 120.378 61.6364Z" fill="#1A2441"/>
<path d="M118.011 40.7753C117.633 40.7753 115.263 40.6892 113.069 40.9502C110.955 41.2033 109.004 41.806 109.004 41.806C108.471 41.9678 108.283 42.2209 108.283 42.7245V60.7107C108.283 61.1073 108.607 61.4674 109.004 61.4674H112.317C112.714 61.4674 113.038 61.1073 113.038 60.7107C113.038 60.7107 113.118 45.9392 113.118 45.9366C113.118 45.78 113.238 45.7279 113.296 45.6965C114.118 45.2738 114.95 45.1564 115.746 45.0468C116.474 44.9451 117.841 44.9607 118.188 44.9607C118.789 44.9607 118.731 44.4206 118.731 44.024V41.9861C118.731 41.5894 118.731 40.7753 118.011 40.7779V40.7753Z" fill="#1A2441"/>
<path d="M102.399 42.8832C100.719 41.2707 98.3731 40.7801 96.0116 40.7619C94.8348 40.754 91.8445 41.0828 90.2763 41.4142C89.8588 41.5029 89.5692 41.7351 89.5613 42.1787C89.5587 42.3796 89.5509 43.1024 89.5561 43.7495C89.5613 44.2819 89.7153 44.9968 89.7884 45.0907C89.971 45.323 90.2711 45.4613 90.5346 45.43C91.4453 45.3256 95.8342 44.8924 96.4396 44.9107C97.0867 44.929 97.9373 44.9942 98.5192 45.3178C99.0332 45.6022 99.6073 46.291 99.7143 46.8886C99.8186 47.4548 99.8134 49.4249 99.7743 49.4536C99.7221 49.4901 97.0684 49.4223 95.795 49.5057C93.037 49.6858 89.59 50.312 88.4863 53.0179C87.9592 54.3095 87.9253 55.836 88.1575 57.1903C88.4106 58.6697 89.2195 59.8126 90.5894 60.6137C92.2385 61.5792 94.2399 61.694 96.1082 61.6209C101.001 61.4304 103.91 60.7964 104.283 60.5485C104.539 60.3763 104.594 60.1231 104.594 59.8439V48.522L104.607 47.507C104.583 45.4274 103.247 43.7026 102.397 42.8885V42.8832H102.399ZM99.7769 57.4668C99.7508 57.519 97.6973 57.7513 96.6483 57.7539C95.9881 57.7539 93.9737 57.6912 93.3762 56.9189C93.0109 56.4466 93.0161 55.3846 93.1126 54.714C93.1988 54.1138 93.551 53.6076 94.1773 53.2971C94.9131 52.9318 96.4943 52.8509 97.5068 52.8509C98.0756 52.8509 99.7143 52.8379 99.7769 52.8509C99.7873 52.8535 99.7873 57.4512 99.7795 57.4642H99.7769V57.4668Z" fill="#1A2441"/>
<path d="M80.8357 49.4424H73.2373V49.2988C73.2373 46.4495 74.8499 44.8604 77.073 44.8604C79.2962 44.8604 80.8357 46.4834 80.8357 49.2988V49.4424ZM85.6029 51.9317V49.912C85.6029 44.5368 82.5918 40.748 77.073 40.748C71.5543 40.748 68.47 44.2837 68.47 49.912V52.5814C68.47 59.6892 73.5609 61.6358 77.1435 61.6358C80.3686 61.6358 81.7672 61.4558 84.0974 61.0226C84.7419 60.9156 84.8488 60.6625 84.8488 60.0859V57.7035C84.8488 57.3434 84.5618 57.1634 84.2043 57.1634H84.0974C82.5918 57.3069 80.1181 57.5235 77.501 57.5235C74.0592 57.5235 73.2008 55.0342 73.2008 52.9415V52.8345H84.8854C85.3864 52.8345 85.6029 52.5109 85.6029 51.9317Z" fill="#1A2441"/>
<path d="M64.5717 61.4671H61.2031C60.8012 61.4671 60.4698 61.107 60.4698 60.7104V48.8588C60.4516 45.7171 59.8201 44.8065 57.4065 44.8221C56.2114 44.83 54.8728 45.331 53.4011 46.0642C53.3411 46.0955 53.2211 46.1477 53.2211 46.3042V60.7078C53.2211 61.1044 52.8923 61.4645 52.4879 61.4645H49.1192C48.7174 61.4645 48.386 61.1044 48.386 60.7078V34.771C48.386 34.3743 48.7148 34.0508 49.1192 34.0508H52.4879C52.8897 34.0508 53.2211 34.3743 53.2211 34.771V42.2284C54.6119 41.3987 56.1488 40.762 58.7503 40.762C63.802 40.762 65.3023 44.4281 65.3023 48.8588V60.7104C65.3023 61.107 64.9736 61.4671 64.5691 61.4671H64.5717Z" fill="#1A2441"/>
<path d="M32.4481 70.7073C30.833 67.5422 29.7449 64.1135 29.176 60.6039C28.8942 58.8661 28.8316 57.3971 28.9125 56.4968C29.0038 55.4766 30.3033 55.3513 30.6425 56.082C30.9426 56.7291 31.1696 57.6867 31.3783 58.3599C33.1944 64.1866 37.2519 69.2304 42.4106 72.4503C47.9685 75.9181 54.7528 77.2672 61.2213 76.2835C61.6519 76.2182 62.3512 76.1165 62.8339 76.0564C63.9402 75.9208 64.4856 77.4446 63.2462 77.9613C62.8991 78.1074 60.5324 78.9085 59.6844 79.1511C56.227 80.1427 52.6027 80.6958 49.0018 80.6123C42.1575 80.4558 35.6159 76.9175 32.4481 70.7073Z" fill="#6CB0E2"/>
<path d="M24.2678 57.8106C23.5659 39.052 38.794 23.2551 58.278 22.5271C61.2891 22.4149 64.2246 22.668 67.0375 23.2473C68.1674 23.4795 68.6971 21.9009 67.6533 21.4103C62.6173 19.0462 56.9159 17.8094 50.917 18.0338C31.4931 18.7592 16.3146 34.5092 17.0139 53.2077C17.3609 62.5048 21.5698 70.7816 28.1036 76.6657C29.176 77.6311 31.0913 77.1666 29.7709 75.1992C26.4179 70.2075 24.5079 64.1904 24.2705 57.8106H24.2678Z" fill="#6CB0E2"/>
<path d="M17.0139 53.2078C16.3903 36.5446 28.375 22.2245 44.7381 18.7906C46.7212 18.3705 48.7826 18.1122 50.9144 18.0339C50.9666 18.0339 51.0162 18.0287 51.0684 18.0287C52.0025 18.0183 52.3104 17.5199 52.3522 17.0032C52.3939 16.4709 51.9947 15.9621 51.1858 15.816C48.9914 15.422 45.2626 14.9053 42.348 15.0149C23.4746 15.7195 9.32942 29.5776 10.0235 48.1353C10.4827 60.4096 17.888 71.1757 28.1036 76.6658C27.8635 76.4518 27.6313 76.2352 27.4017 76.0134C21.2724 70.179 17.3505 62.1683 17.0139 53.2078Z" fill="#005C9E"/>
</g>
<defs>
<clipPath id="clip0_222_183">
<rect width="180" height="68.743" fill="white" transform="translate(10 15)"/>
</clipPath>
</defs>
</svg>
