<svg width="237" height="43" viewBox="0 0 237 43" fill="none" xmlns="http://www.w3.org/2000/svg">
<g clip-path="url(#clip0_753_5641)">
<path fill-rule="evenodd" clip-rule="evenodd" d="M12.7149 39.3494C17.6181 44.2238 25.6239 44.2238 30.527 39.3494V39.3595L39.5806 30.3591C44.4736 25.4847 44.4736 17.5157 39.5806 12.6514L30.527 3.65093C25.6239 -1.22349 17.6181 -1.22349 12.7149 3.65093L3.67152 12.6413C-1.23165 17.5157 -1.23165 25.4847 3.67152 30.349L12.7149 39.3494ZM21.1281 10.1637C20.3956 10.1637 19.8056 10.3963 19.3275 10.8615C18.3001 11.8728 17.761 13.9661 17.8118 16.7472C17.8729 20.1856 18.6968 26.9207 21.4129 30.3895C21.8503 30.9558 22.3284 31.4007 22.8167 31.7244C23.2948 32.0379 23.834 32.3514 24.6681 32.3514C24.8919 32.3514 25.1361 32.3311 25.4005 32.2806C26.9569 31.9064 28.9101 30.1872 30.3647 27.8916C30.5885 27.5376 30.9649 27.3354 31.382 27.3354C31.6058 27.3354 31.8296 27.396 32.0229 27.5174C32.2975 27.6893 32.4806 27.9523 32.5518 28.2658C32.6231 28.5793 32.5722 28.8928 32.3993 29.1658C30.5682 32.0682 28.1471 34.1009 25.9193 34.6166C25.9193 34.6166 25.8888 34.6166 25.8685 34.6268C25.4616 34.6976 25.0547 34.738 24.6783 34.738C23.244 34.738 22.2369 34.1919 21.5146 33.7166C20.8025 33.2514 20.1413 32.6244 19.5412 31.8558C15.7163 26.9713 15.4518 17.8191 15.4416 16.7876C15.4009 14.3504 15.7468 11.0435 17.6694 9.16251C18.6053 8.24224 19.7751 7.77704 21.1484 7.77704H21.3722C22.7455 7.77704 23.9255 8.24224 24.8512 9.16251C26.7637 11.0536 27.1197 14.3504 27.079 16.7876C27.0383 19.326 26.5704 24.2408 23.9255 28.65C23.7119 29.0141 23.3152 29.2366 22.8981 29.2366C22.6845 29.2366 22.4708 29.1759 22.2877 29.0647C21.7181 28.7309 21.535 27.9927 21.8707 27.4264C23.7221 24.342 24.6173 20.944 24.6885 16.7472C24.7393 13.956 24.2002 11.8728 23.1728 10.8615C22.6946 10.3963 22.1148 10.1637 21.3824 10.1637H21.1688H21.1281ZM16.2565 34.7077C15.5343 34.7077 14.9544 34.1515 14.9239 33.4334C14.9138 33.0795 15.0358 32.7357 15.28 32.4828C15.5241 32.2199 15.8496 32.0682 16.2158 32.0581C16.9483 32.0176 17.579 32.5941 17.6095 33.3323C17.64 34.0604 17.0602 34.6874 16.3277 34.7178H16.2667L16.2565 34.7077Z" fill="#DA291C"/>
<path d="M65.5301 20.125H58.6433V13.9966H54.0657V29.0041H58.6433V21.9049H65.5301V29.0041H70.0671V13.9966H65.5301V20.125Z" fill="#DA291C"/>
<path d="M89.751 15.7964C88.9779 15.0481 88.0115 14.4615 86.8518 14.0166C85.6922 13.5716 84.3189 13.3491 82.7625 13.3491C81.2061 13.3491 79.8328 13.5716 78.6731 14.0166C77.5134 14.4615 76.547 15.0582 75.7739 15.7964C75.0008 16.5448 74.4312 17.4145 74.0548 18.3955C73.6784 19.3865 73.4851 20.418 73.4851 21.49C73.4851 22.562 73.6784 23.6036 74.0751 24.5845C74.4617 25.5756 75.0517 26.4352 75.835 27.1835C76.6183 27.9319 77.5846 28.5286 78.7443 28.9735C79.904 29.4185 81.2366 29.641 82.7625 29.641C84.2884 29.641 85.5701 29.4185 86.7298 28.9735C87.8793 28.5286 88.8457 27.9319 89.6391 27.1835C90.4326 26.4352 91.0226 25.5756 91.4295 24.5845C91.8364 23.5935 92.0398 22.562 92.0398 21.49C92.0398 20.418 91.8567 19.3865 91.4702 18.3955C91.0938 17.4044 90.5241 16.5448 89.7612 15.7964H89.751ZM87.2079 23.998C86.9739 24.7767 86.6484 25.4644 86.2313 26.0408C85.8142 26.6273 85.3056 27.0925 84.7156 27.4263C84.1256 27.76 83.4746 27.9319 82.7726 27.9319C82.0707 27.9319 81.4095 27.76 80.8195 27.4263C80.2295 27.0925 79.7209 26.6273 79.2936 26.0408C78.8664 25.4542 78.5409 24.7767 78.2967 23.998C78.0628 23.2193 77.9509 22.3799 77.9509 21.49C77.9509 20.6001 78.0729 19.7708 78.2967 18.9921C78.5307 18.2134 78.8664 17.5257 79.2936 16.9291C79.7209 16.3324 80.2295 15.8672 80.8195 15.5234C81.4095 15.1796 82.0606 15.0076 82.7726 15.0076C83.4847 15.0076 84.1358 15.1796 84.7156 15.5234C85.3056 15.8672 85.8142 16.3324 86.2313 16.9291C86.6484 17.5156 86.9739 18.2033 87.2079 18.9921C87.4418 19.7708 87.5639 20.6001 87.5639 21.49C87.5639 22.3799 87.4418 23.2092 87.2079 23.998Z" fill="#DA291C"/>
<path d="M93.0571 15.7866H98.9776V29.0041H103.586V15.7866H109.506V13.9966H93.0571V15.7866Z" fill="#DA291C"/>
<path d="M113.046 14.0571C112.792 14.0976 112.568 14.1987 112.365 14.3504C112.161 14.5021 112.009 14.7246 111.886 15.0178C111.764 15.3111 111.703 15.6954 111.703 16.1808V26.8297C111.703 27.3252 111.764 27.7196 111.876 28.0129C111.988 28.3062 112.151 28.5185 112.354 28.6702C112.558 28.8219 112.802 28.9129 113.077 28.9534C113.351 28.9939 113.657 29.0141 113.982 29.0141H125.741V27.214H117.349C117.095 27.214 116.891 27.1836 116.739 27.1331C116.586 27.0825 116.484 27.0117 116.413 26.9106C116.342 26.8095 116.301 26.6982 116.291 26.5668C116.271 26.4353 116.271 26.2937 116.271 26.142V21.9047H125.63V20.1249H116.271V16.8584C116.271 16.3831 116.362 16.0898 116.556 15.9685C116.749 15.8471 117.054 15.7864 117.461 15.7864H125.752V13.9863H113.84C113.575 13.9863 113.311 14.0066 113.046 14.047V14.0571Z" fill="#DA291C"/>
<path d="M133.289 26.9006C133.177 26.7085 133.116 26.4658 133.116 26.1523V13.9966H128.539V27.0119C128.539 27.6995 128.712 28.2052 129.047 28.5288C129.393 28.8524 129.871 29.0142 130.502 29.0142H141.794V27.1939H134.032C133.645 27.1939 133.401 27.1029 133.289 26.9107V26.9006Z" fill="#DA291C"/>
<path d="M175.892 13.3994C169.962 13.3994 166.411 17.0401 166.411 21.5403C166.411 26.0405 169.962 29.6812 175.892 29.6812C181.823 29.6812 185.383 26.0405 185.383 21.5403C185.383 17.0401 181.823 13.3994 175.892 13.3994ZM175.892 27.9316C173.054 27.9316 170.887 25.0596 170.887 21.5403C170.887 18.021 173.054 15.1489 175.892 15.1489C178.73 15.1489 180.897 18.0109 180.897 21.5403C180.897 25.0697 178.74 27.9316 175.892 27.9316Z" fill="#DA291C"/>
<path d="M186.197 15.7967H192.433V29.0041H197.142V15.7967H202.412V13.9966H186.197V15.7967Z" fill="#DA291C"/>
<path d="M204.121 15.7967H209.39V29.0041H214.09V15.7967H220.346V13.9966H204.121V15.7967Z" fill="#DA291C"/>
<path d="M157.042 26.304V13.9966H152.526V27.2141C152.526 28.2052 153.33 28.994 154.326 28.994H165.862V27.1939H157.938C157.449 27.1939 157.032 26.7995 157.032 26.304H157.042Z" fill="#DA291C"/>
<path d="M228.321 15.7663H236.998V13.9966H224.69C223.703 13.9966 222.889 14.7955 222.889 15.7765V27.2141C222.889 28.2052 223.703 28.994 224.69 28.994H236.988V27.2242H228.311C227.813 27.2242 227.406 26.8197 227.406 26.3242V21.9049H236.856V20.1452H227.406V16.6462C227.406 16.1607 227.813 15.7562 228.311 15.7562L228.321 15.7663Z" fill="#DA291C"/>
</g>
<defs>
<clipPath id="clip0_753_5641">
<rect width="237" height="43" fill="white"/>
</clipPath>
</defs>
</svg>
